<?xml version="1.0" encoding="utf-8"?>
<!-- Generator: Adobe Illustrator 19.1.0, SVG Export Plug-In . SVG Version: 6.00 Build 0)  -->
<svg version="1.1" id="Layer_1" xmlns="http://www.w3.org/2000/svg" xmlns:xlink="http://www.w3.org/1999/xlink" x="0px" y="0px"
	 viewBox="0 0 376.5 371.8" style="enable-background:new 0 0 376.5 371.8;" xml:space="preserve">
<style type="text/css">
	.st0{fill:url(#SVGID_1_);}
	.st1{fill:url(#SVGID_2_);}
	.st2{fill:url(#SVGID_3_);}
	.st3{fill:url(#SVGID_4_);}
	.st4{fill:url(#SVGID_5_);}
	.st5{fill:url(#SVGID_6_);}
	.st6{fill:url(#SVGID_7_);}
	.st7{fill:url(#SVGID_8_);}
</style>
<linearGradient id="SVGID_1_" gradientUnits="userSpaceOnUse" x1="78.7873" y1="276.0261" x2="78.7873" y2="276.0261">
	<stop  offset="0" style="stop-color:#232366"/>
	<stop  offset="1" style="stop-color:#842D84"/>
</linearGradient>
<path class="st0" d="M78.8,276"/>
<linearGradient id="SVGID_2_" gradientUnits="userSpaceOnUse" x1="287.5062" y1="319.259" x2="287.5062" y2="319.259">
	<stop  offset="0" style="stop-color:#232366"/>
	<stop  offset="1" style="stop-color:#842D84"/>
</linearGradient>
<path class="st1" d="M287.5,319.3"/>
<linearGradient id="SVGID_3_" gradientUnits="userSpaceOnUse" x1="47.2819" y1="224.8671" x2="47.2819" y2="319.7731">
	<stop  offset="0" style="stop-color:#232366"/>
	<stop  offset="1" style="stop-color:#842D84"/>
</linearGradient>
<path class="st2" d="M65.8,228c-1.3-1.7-2.4-3.2-3.4-4.3c-6.9,3.9-13.7,2.4-20.4-2.4c-5-3.6-8.5-8.3-10.1-14.2
	c-2.4-9.1-2.6-17.3-0.2-24.5c0.3-0.9,0.5-1.5,0.6-1.8c4-11.7,7.9-27.1,10.7-37.3c9.3-34.5,12.8-38.8,11.3-50.2
	c-1-8-3.8-15.6-3.8-15.6c-2.7-7.3-6-13-8.9-17.1c-1.4,1.6-2.7,3.2-4.1,4.8c-8.9-1.4-17.8-2.9-26.7-4.3c0.1,1.5,0.2,3,0.2,4.6
	c3.4,1.2,10.9,4.4,17.2,12c9.7,11.5,8.9,21.1,8.9,21.1s-9.3,26.3-13.9,39.4c0,0-15.3,36.5-16.7,40.4c-1.3,3.7-3.8,15.8-4.4,21.3
	c-0.3,3.1-1,13.2-0.7,17.5c0.2,2.7,2.9,13.1,3.5,14.5c1.6,3.6,3.1,7.2,4.7,10.7c4.3,7.9,16.3,27.5,18,29.3
	c3.8,4.4,7.7,8.8,11.5,13.2C69.7,314,82.5,316.5,88.4,313C100,306.2,89.6,260,65.8,228z"/>
<linearGradient id="SVGID_4_" gradientUnits="userSpaceOnUse" x1="308.8824" y1="228.7152" x2="308.8824" y2="325.4721">
	<stop  offset="0" style="stop-color:#232366"/>
	<stop  offset="1" style="stop-color:#842D84"/>
</linearGradient>
<path class="st3" d="M244.7,81.9c-0.6-0.1-1.5-0.4-2.6-0.9c1.3,10.6,2.6,21.1,3.9,31.7l1.7,11.5l4.6-2.9
	c4.1-2.6,32.2-41.4,34.3-46.1c1.5-4.6,6.5-17.8,8.2-20.3c1.9-3,4-5.8,5.1-7c4.1-4.7,13.4-10,22.8-8.2c6.3,1.3,10.9,4.8,16.8,12
	c2.6,3.1,11.2,16.1,13,19.9c3.1,6.8,4.7,10.3,6,14.7c1.4,4.5,2.1,8.4,2.9,15.9c0.8,7.5,1.7,17.5,2.2,29.8
	c-2.8,16.7-8.3,29.5-13.2,35.8c-1.5,1.9-6.7,8.9-15.6,15.6l0,0c-10,6.9-40.6,32.9-40.6,32.9l-6,14.4l7,30l6.2,7.9
	c5.2,3.4,10.4,6.7,15.6,10.1c-1-2.7-2-5.6-2.8-8.8c-3.1-12.2-2.7-23.1-1.5-31.1c1.8-8.9,5-14.9,7.4-18.7c3.9-6,24-26.6,27.9-30.7
	c4.4-5.2,8.8-10.4,13.2-15.6c2.6-4.1,5.3-9.1,7.7-14.9c4.4-10.8,6.2-20.6,7-28.1c-0.5-19.8-5-46.6-5-46.6
	c-2.6-8.3-5.5-15.3-7.6-19.7c-1.5-3.3-3.5-7.2-6.1-11.2c-3.3-5-6.8-9-9.8-12c-2.6-3-8-8.6-16.8-11.6c-15.7-5.4-29.4,1.5-31.9,2.9
	c-8.9,5.3-13.5,11.1-16.1,15.6c-2.7,4.8-5.4,10.6-11.7,18.3C269.6,67.5,252.2,83.5,244.7,81.9z"/>
<linearGradient id="SVGID_5_" gradientUnits="userSpaceOnUse" x1="179.1837" y1="224.8671" x2="179.1837" y2="319.7731">
	<stop  offset="0" style="stop-color:#232366"/>
	<stop  offset="1" style="stop-color:#842D84"/>
</linearGradient>
<ellipse class="st4" cx="179.2" cy="351.8" rx="111.2" ry="18.4"/>
<linearGradient id="SVGID_6_" gradientUnits="userSpaceOnUse" x1="315.1272" y1="279.869" x2="315.1272" y2="279.869">
	<stop  offset="0" style="stop-color:#232366"/>
	<stop  offset="1" style="stop-color:#842D84"/>
</linearGradient>
<path class="st5" d="M315.1,279.9"/>
<linearGradient id="SVGID_7_" gradientUnits="userSpaceOnUse" x1="179.0723" y1="224.8671" x2="179.0723" y2="319.7731">
	<stop  offset="0" style="stop-color:#232366"/>
	<stop  offset="1" style="stop-color:#842D84"/>
</linearGradient>
<path class="st6" d="M299.1,226.5c-1.2-2.9-2.4-5.8-3.6-8.6c-6.9-12.4-13.2-22-17.5-28.3c-7-10.2-28.9-72.4-31.9-84.8
	c-0.3-7.6-0.6-15.2-0.9-22.8c0-0.9-0.1-1.8-0.1-2.6c0-5.5,4.6-16.8,4.6-16.8c0.9-2.3,4.2-9.4,11.9-12.7c2-0.9,4-1.3,5.7-1.5
	c-2-2.9-7.7-10.1-18-13.9c-13.1-4.8-24.7-0.6-27.5,0.5c-10.2-4-28.9-12-30.9-12c-3,0,0-4.6,0-4.6l3.6-2.3h-7.6V7.5
	c-2-1.9-6-3.9-8-5.8c-2,1.9-6,3.9-8,5.8V16h-6.9l2.9,2.3c0,0,3,4.6,0,4.6c-2,0-20.3,8-30.5,12c-2.8-1.1-14.1-5.3-27.2-0.5
	c-10.3,3.8-16,11.1-18,13.9c1.7,0.2,3.6,0.6,5.7,1.5c7.6,3.3,10.9,10.4,11.9,12.7c0,0,4.6,11.3,4.6,16.8c0,0.9-0.1,1.8-0.1,2.6
	c-0.3,7.6-0.6,15.2-0.9,22.8c-3,12.4-24.9,74.5-31.9,84.8c-4.3,6.4-10.6,15.9-17.5,28.3c-1.2,2.9-2.4,5.8-3.6,8.6
	c-0.9,9.9-1.8,19.9-2.6,29.8c0.9,7.4,2.6,22.1,2.6,22.1s4.1,15.1,9.4,25.5c1.5,3.5,3.4,7.5,6,11.5c1.1,1.7,2.2,3.3,3.4,4.8
	c1.5,1.8,3.7,4.5,6.5,7.7c1.3,1.5,3.7,4.4,4.8,5.5c4.9,5.1,10,9,14.4,11.8c5.3,5,18.7,10.8,18.7,10.8s10.3,6.2,16.8,6.7
	c3.8,1.1,8.1,2.2,13,2.9c3.5,0.5,6.8,0.8,9.9,1c1.5,0.2,3,0.3,4.6,0.5c4.2,0.4,7.3,0.7,12.3,1c5-0.2,8.4-0.6,12.6-1
	c1.5-0.2,3.2-0.3,4.7-0.5c3-0.1,6.4-0.4,9.9-1c4.9-0.7,9.2-1.8,13-2.9c6.5-0.5,16.8-6.7,16.8-6.7s13.5-5.8,18.7-10.8
	c4.4-2.8,9.5-6.6,14.4-11.8c1.1-1.1,3.5-4,4.8-5.5c2.7-3.2,5-5.9,6.5-7.7c1.1-1.5,2.3-3.1,3.4-4.8c2.6-4.1,4.6-8,6-11.5
	c5.3-10.3,9.4-25.5,9.4-25.5s1.8-14.7,2.6-22.1C300.8,246.4,299.9,236.5,299.1,226.5z"/>
<radialGradient id="SVGID_8_" cx="186.7231" cy="240.1005" r="78.8211" gradientUnits="userSpaceOnUse">
	<stop  offset="0" style="stop-color:#FFFFFF"/>
	<stop  offset="0.9667" style="stop-color:#FFFFFF;stop-opacity:0.2266"/>
	<stop  offset="1" style="stop-color:#FFFFFF;stop-opacity:0.2"/>
</radialGradient>
<path class="st7" d="M186,160.9l-2,0c-2.6,0.1-5.2,0.3-7.7,0.6c33.6,3.5,59.7,31.9,59.7,66.3c0,36.8-29.9,66.7-66.7,66.7
	c-27.3,0-50.7-16.4-61.1-39.9c6.9,36.7,39.1,64.5,77.8,64.5c43.7,0,79.2-35.4,79.2-79.2S229.8,160.9,186,160.9z"/>
</svg>
